<?xml version="1.0" standalone="no"?>
<!DOCTYPE svg PUBLIC "-//W3C//DTD SVG 20010904//EN"
 "http://www.w3.org/TR/2001/REC-SVG-20010904/DTD/svg10.dtd">
<svg version="1.0" xmlns="http://www.w3.org/2000/svg"
 width="3136.000000pt" height="3136.000000pt" viewBox="0 0 3136.000000 3136.000000"
 preserveAspectRatio="xMidYMid meet">
<metadata>
Created by potrace 1.14, written by Peter Selinger 2001-2017
</metadata>
<g transform="translate(0.000000,3136.000000) scale(0.100000,-0.100000)"
fill="#000000" stroke="none">
<path d="M17658 20475 c-2 -2 -39 -6 -83 -9 -44 -3 -106 -10 -139 -16 -32 -5
-61 -9 -65 -8 -3 0 -8 -1 -11 -2 -7 -2 -40 -8 -85 -15 -64 -9 -69 -10 -82 -18
-7 -5 -13 -6 -13 -4 0 4 -64 -10 -125 -27 -5 -1 -26 -6 -45 -10 -79 -17 -282
-86 -415 -141 -11 -5 -22 -9 -25 -9 -3 -1 -15 -7 -26 -14 -12 -6 -24 -8 -28
-5 -3 3 -6 2 -6 -4 0 -6 -10 -14 -22 -18 -13 -4 -25 -8 -28 -9 -26 -9 -251
-127 -260 -136 -7 -7 -43 -29 -60 -37 -30 -13 -177 -112 -260 -174 -90 -68
-111 -85 -170 -136 -21 -18 -42 -33 -47 -33 -5 0 -23 12 -41 28 -17 15 -43 36
-58 47 -15 11 -38 29 -50 40 -13 11 -62 47 -110 80 -47 33 -92 65 -98 70 -6 6
-45 30 -86 54 -41 25 -76 48 -78 53 -2 4 -10 8 -19 8 -8 0 -27 9 -42 19 -26
19 -253 131 -265 131 -3 0 -33 13 -66 29 -33 16 -60 27 -60 24 0 -3 -6 0 -13
6 -8 6 -17 8 -20 4 -4 -3 -7 -2 -7 4 0 5 -6 10 -12 10 -7 1 -67 19 -133 41
-158 53 -225 72 -261 75 -16 1 -31 5 -34 8 -3 4 -21 9 -40 13 -19 3 -60 10
-90 16 -102 20 -136 25 -230 35 -30 3 -68 8 -85 11 -55 10 -509 12 -595 3 -47
-6 -109 -11 -137 -12 -29 -1 -53 -5 -53 -8 0 -3 -12 -6 -27 -6 -16 -1 -39 -4
-53 -7 -14 -2 -41 -7 -60 -10 -49 -8 -98 -18 -150 -31 -28 -7 -48 -12 -100
-24 -25 -5 -64 -17 -87 -25 -24 -8 -43 -13 -43 -9 0 3 -7 0 -15 -7 -8 -7 -15
-9 -15 -5 0 4 -7 2 -15 -5 -8 -7 -15 -9 -15 -5 0 4 -6 2 -13 -4 -8 -6 -22 -12
-33 -14 -10 -2 -32 -9 -47 -15 -16 -7 -35 -12 -43 -12 -8 0 -14 -4 -14 -8 0
-5 -6 -9 -13 -9 -7 0 -51 -17 -97 -37 -47 -21 -98 -43 -115 -49 -16 -7 -32
-15 -35 -18 -3 -4 -27 -17 -55 -30 -137 -64 -439 -259 -550 -356 -11 -10 -47
-40 -80 -68 -108 -89 -365 -354 -418 -429 -11 -17 -24 -33 -27 -36 -23 -18
-233 -325 -253 -370 -4 -8 -20 -37 -36 -65 -44 -77 -95 -179 -93 -187 1 -5 -2
-8 -8 -8 -5 0 -10 -4 -10 -10 0 -5 -12 -35 -26 -67 -41 -89 -139 -354 -148
-398 -1 -5 -5 -16 -9 -22 -5 -7 -6 -17 -2 -22 3 -5 1 -12 -4 -15 -5 -4 -12
-25 -16 -49 -4 -23 -10 -46 -13 -52 -3 -5 -7 -16 -8 -25 -8 -55 -14 -81 -18
-88 -2 -4 -7 -26 -10 -48 -4 -22 -9 -51 -12 -64 -6 -30 -21 -119 -29 -176 -8
-61 -14 -126 -21 -249 -10 -184 -10 -235 -2 -235 5 0 4 -8 -1 -19 -6 -10 -8
-21 -5 -23 3 -3 7 -45 9 -94 8 -164 23 -284 56 -449 12 -55 23 -110 25 -122 2
-12 9 -34 14 -49 6 -15 8 -29 6 -32 -3 -2 1 -17 10 -33 8 -16 13 -29 10 -29
-2 0 2 -21 10 -47 8 -25 14 -50 14 -55 0 -5 -848 -6 -1977 -3 -1088 3 -1984 6
-1990 6 -7 0 -33 0 -58 0 -25 0 -53 0 -62 0 -25 0 -269 0 -653 0 -179 0 -332
2 -341 5 -14 4 -15 191 -14 1882 0 1879 -1 1958 -32 1981 -4 3 -13 15 -19 26
-13 24 -114 87 -130 81 -6 -2 -16 0 -22 6 -6 6 -12 6 -16 0 -3 -6 -20 -7 -41
-2 -19 4 -37 4 -40 0 -3 -4 -21 -4 -40 0 -19 4 -37 4 -40 -1 -3 -4 -16 -5 -28
-1 -26 10 -38 9 -54 -1 -7 -5 -13 -5 -13 0 0 10 -212 9 -228 -1 -7 -4 -12 -4
-12 1 0 10 -212 9 -228 -1 -7 -4 -12 -4 -12 1 0 9 -137 9 -146 1 -3 -3 -21 -2
-40 2 -19 4 -36 4 -39 0 -2 -4 -23 -4 -45 0 -21 4 -42 4 -46 1 -3 -3 -10 -7
-15 -7 -5 -1 -11 -3 -14 -4 -3 -1 -9 -3 -13 -4 -49 -7 -113 -74 -138 -143 -8
-23 -11 -1115 -12 -4195 0 -3590 1 -4170 14 -4215 17 -64 79 -128 138 -145 62
-18 1107 -19 1159 -1 65 22 124 79 128 120 0 5 6 14 12 21 8 10 11 538 11
1882 1 1028 4 1872 8 1876 4 4 346 6 760 5 414 -1 1271 -4 1903 -6 633 -1
1152 -4 1155 -5 3 -1 10 -1 15 0 28 8 181 4 187 -5 5 -7 8 -7 8 1 0 11 59 12
78 1 6 -4 13 -4 16 1 6 10 97 9 114 -1 6 -5 12 -5 12 0 0 10 251 10 267 0 7
-5 13 -5 13 0 0 4 16 8 35 8 19 0 35 -4 35 -8 0 -5 6 -5 12 -1 18 11 48 12 48
2 0 -5 5 -6 11 -2 16 10 179 11 179 1 0 -5 4 -5 10 -2 16 10 90 11 90 2 0 -4
6 -5 12 -1 16 10 48 13 48 4 0 -8 37 -6 46 2 3 4 17 3 29 -2 16 -6 25 -5 27 2
3 8 10 7 26 -1 12 -6 22 -8 22 -4 0 10 47 10 56 0 4 -3 15 -2 25 3 11 7 20 7
24 0 4 -6 15 -6 31 0 17 7 23 7 19 0 -4 -6 2 -7 17 -2 20 6 54 8 68 2 16 -5
73 -4 77 3 2 4 13 2 25 -4 14 -8 23 -8 31 0 6 6 16 7 28 1 10 -6 20 -6 23 -1
3 4 18 7 33 4 29 -4 94 -6 103 -3 3 1 19 3 35 5 47 6 145 37 145 47 0 4 6 8
13 8 14 0 63 44 102 91 45 55 83 161 86 244 2 75 -14 143 -67 272 -31 76 -57
143 -58 148 -1 6 -5 16 -9 23 -5 6 -5 12 -1 12 3 0 2 6 -3 13 -9 11 -22 50
-22 70 -1 4 -8 23 -16 43 -8 20 -17 46 -20 58 -2 11 -16 63 -29 114 -14 51
-26 107 -27 125 -2 18 -5 37 -8 42 -6 11 -8 20 -15 75 -3 19 -7 53 -11 75 -3
22 -8 60 -11 85 -8 58 -13 522 -6 534 2 5 6 27 8 50 4 62 21 178 30 209 3 11
8 29 9 40 2 12 6 36 9 54 3 18 12 56 21 85 9 29 18 64 21 77 3 13 11 39 19 57
8 19 12 34 10 34 -2 0 2 12 10 27 8 15 12 30 9 35 -3 4 0 8 5 8 6 0 10 3 9 8
-1 4 4 21 11 37 7 17 14 35 15 40 2 6 14 36 29 68 14 31 27 61 28 65 1 4 13
24 25 44 13 21 24 44 24 53 0 8 4 15 8 15 4 0 19 22 33 50 13 27 27 50 32 50
4 0 7 5 7 11 0 9 58 98 93 144 4 5 24 33 45 60 20 28 45 57 54 66 10 9 18 19
18 23 0 4 14 20 30 36 17 16 30 34 30 40 0 5 7 10 15 10 8 0 15 4 15 8 0 15
127 137 227 219 12 10 30 25 40 33 81 67 247 175 353 231 36 18 68 38 72 44 4
5 8 7 8 2 0 -4 19 3 43 15 23 12 44 23 47 23 3 1 23 9 45 19 22 10 45 19 50
20 6 1 15 4 20 7 27 16 284 92 350 104 17 2 41 7 55 10 14 3 41 8 60 11 19 2
46 7 60 9 139 25 564 25 675 0 11 -3 36 -7 55 -10 123 -16 352 -76 500 -132
191 -73 453 -215 604 -328 152 -113 179 -137 344 -302 191 -191 263 -221 468
-200 59 6 153 53 201 102 23 23 45 40 48 37 3 -3 5 0 5 7 0 13 171 186 239
241 24 19 48 40 55 45 6 6 38 31 71 55 33 25 62 47 65 50 14 16 216 140 280
172 25 13 48 27 51 31 3 5 9 9 12 8 4 0 42 16 84 35 106 48 193 84 193 78 0
-3 10 1 23 8 12 6 28 13 34 14 7 1 42 12 77 23 36 12 73 22 83 24 10 2 37 9
61 16 24 7 56 14 72 16 16 2 53 8 82 14 29 6 78 14 108 17 30 3 71 8 90 10 49
5 358 6 400 0 19 -3 60 -7 90 -10 71 -7 141 -19 245 -41 73 -15 191 -49 203
-58 6 -5 12 -7 12 -3 0 3 24 -4 53 -15 28 -11 52 -20 52 -19 0 6 196 -79 213
-92 6 -6 12 -7 12 -2 0 5 4 4 8 -1 4 -6 30 -22 57 -36 88 -45 202 -114 215
-130 3 -3 20 -14 38 -24 17 -11 32 -23 32 -27 0 -4 5 -8 11 -8 6 0 16 -6 24
-12 7 -7 27 -24 45 -38 18 -14 46 -36 62 -50 50 -41 240 -231 283 -283 22 -27
45 -54 50 -60 39 -46 85 -106 85 -112 0 -3 8 -15 18 -26 11 -10 25 -32 32 -47
8 -15 21 -36 30 -47 35 -42 206 -365 194 -365 -3 0 1 -10 8 -22 7 -13 13 -25
14 -28 3 -13 16 -47 25 -62 5 -10 9 -23 9 -30 0 -7 6 -24 13 -38 7 -14 19 -47
26 -75 7 -27 15 -57 18 -65 2 -8 4 -16 4 -17 0 -2 5 -17 10 -35 13 -40 38
-152 44 -193 3 -16 7 -41 9 -55 2 -14 7 -50 11 -80 11 -94 35 -171 69 -224 38
-59 118 -133 152 -142 13 -3 24 -9 24 -14 0 -16 111 -42 197 -46 93 -3 148 8
230 51 39 19 123 103 123 122 0 7 4 13 8 13 15 0 41 104 42 165 1 65 -5 124
-25 240 -3 17 -7 44 -10 60 -3 17 -8 41 -11 55 -3 14 -6 34 -8 45 -2 11 -6 29
-9 40 -3 11 -9 34 -11 50 -20 113 -131 454 -198 605 -42 95 -170 343 -203 396
-19 30 -35 59 -35 64 0 6 -4 10 -10 10 -5 0 -10 7 -10 15 0 8 -4 15 -10 15 -5
0 -10 6 -10 13 0 6 -18 36 -40 65 -22 29 -40 56 -40 61 0 5 -4 11 -8 13 -5 2
-28 30 -53 63 -44 60 -65 87 -84 109 -218 253 -381 406 -615 576 -41 30 -76
58 -78 62 -2 5 -8 8 -14 8 -5 0 -28 13 -51 29 -23 16 -58 38 -77 49 -19 11
-67 38 -107 61 -40 22 -77 41 -83 41 -5 0 -10 5 -10 10 0 6 -3 9 -7 8 -5 -1
-46 16 -93 39 -113 54 -160 73 -160 65 0 -4 -4 -2 -8 4 -6 10 -184 78 -232 89
-8 2 -15 4 -15 5 0 1 -7 3 -15 5 -8 2 -49 14 -90 26 -41 11 -86 23 -100 26
-14 2 -32 7 -40 10 -8 3 -24 7 -35 9 -11 1 -36 6 -55 9 -19 4 -43 7 -52 7 -10
-1 -18 2 -18 6 0 4 -12 7 -27 8 -16 0 -44 3 -63 7 -19 3 -62 9 -95 12 -33 4
-73 9 -90 12 -34 5 -512 13 -517 8z"/>
<path d="M26440 20100 c0 -3 -11 -6 -25 -6 -69 -4 -154 -81 -173 -157 -8 -28
-11 -622 -11 -1877 0 -1009 -1 -1858 -1 -1886 l0 -50 -742 -2 c-409 -1 -812
-3 -896 -5 -83 -1 -152 1 -152 5 0 4 -6 5 -14 2 -24 -9 -976 -10 -976 -1 0 5
-6 5 -12 0 -7 -4 -434 -8 -948 -9 -2114 -5 -2082 -5 -2138 -20 -88 -23 -211
-93 -212 -120 0 -7 -6 -14 -13 -17 -10 -4 -87 -144 -92 -167 -1 -7 -61 -124
-97 -190 -17 -30 -40 -73 -52 -95 -11 -22 -23 -42 -26 -45 -3 -3 -12 -18 -20
-35 -8 -16 -18 -34 -23 -40 -23 -30 -57 -87 -57 -95 0 -6 -4 -10 -9 -10 -5 0
-12 -8 -15 -17 -14 -39 -239 -366 -319 -463 -7 -8 -26 -33 -42 -55 -34 -45
-55 -72 -70 -89 -6 -6 -28 -33 -50 -61 -46 -58 -66 -80 -180 -210 -33 -38 -85
-96 -115 -129 -85 -93 -465 -472 -558 -556 -46 -41 -96 -86 -111 -100 -62 -57
-283 -247 -361 -310 -96 -78 -103 -85 -122 -102 -10 -10 -21 -18 -24 -18 -4 0
-32 -22 -63 -48 -31 -26 -74 -61 -96 -77 -22 -16 -42 -31 -45 -34 -3 -4 -32
-26 -65 -51 -33 -25 -62 -47 -65 -50 -3 -3 -21 -17 -40 -30 -38 -27 -41 -29
-85 -65 -16 -14 -33 -25 -37 -25 -4 0 -17 -10 -30 -23 -13 -13 -27 -25 -33
-27 -5 -2 -14 -8 -20 -13 -5 -5 -64 -47 -130 -93 -66 -47 -127 -91 -135 -97
-8 -7 -32 -23 -53 -36 -21 -12 -43 -28 -50 -34 -7 -7 -39 -30 -72 -52 -33 -22
-64 -43 -70 -48 -5 -4 -32 -22 -60 -40 -27 -17 -54 -35 -60 -40 -30 -25 -566
-371 -600 -387 -5 -3 -29 -17 -52 -32 -24 -16 -47 -28 -53 -28 -5 0 -10 -4
-10 -10 0 -5 -6 -10 -14 -10 -8 0 -16 -3 -18 -7 -1 -5 -33 -23 -69 -42 -55
-27 -74 -32 -103 -27 -47 9 -219 95 -324 163 -45 29 -87 53 -92 53 -4 0 -10 3
-12 8 -2 4 -37 30 -78 57 -41 28 -76 53 -78 58 -2 4 -8 7 -13 7 -11 0 -163
102 -167 113 -2 4 -8 7 -13 7 -9 0 -519 336 -529 349 -3 3 -48 35 -100 70 -52
36 -97 67 -100 70 -3 3 -12 11 -21 16 -38 23 -145 100 -163 117 -11 10 -23 18
-26 18 -4 0 -20 11 -36 25 -52 44 -59 50 -104 80 -25 17 -54 38 -65 48 -11 9
-69 57 -130 104 -152 121 -165 131 -210 171 -16 15 -42 37 -57 48 -23 18 -95
79 -158 134 -9 8 -45 40 -80 70 -34 30 -80 71 -100 90 -21 19 -81 76 -135 125
-198 184 -495 491 -680 705 -17 18 -39 44 -50 55 -11 12 -32 37 -46 56 -15 19
-44 53 -67 77 -22 23 -37 42 -35 42 13 0 -97 68 -132 81 -61 23 -177 21 -244
-4 -31 -12 -58 -24 -61 -27 -3 -3 -21 -16 -42 -28 -49 -30 -112 -104 -145
-172 -27 -55 -30 -62 -38 -110 -2 -14 -4 -25 -5 -25 -6 0 -4 -128 2 -132 5 -2
8 -13 8 -24 0 -30 56 -140 90 -176 16 -18 30 -34 30 -37 0 -3 12 -18 28 -34
15 -16 36 -40 47 -54 42 -54 237 -269 360 -396 129 -135 435 -435 435 -427 0
1 21 -18 48 -44 26 -25 81 -75 122 -111 41 -36 77 -68 80 -71 6 -7 150 -131
215 -184 26 -22 53 -44 59 -50 6 -5 56 -46 111 -89 55 -43 106 -86 112 -94 7
-9 13 -12 13 -6 0 5 4 4 8 -2 4 -5 61 -51 127 -102 66 -51 125 -96 131 -101 6
-5 62 -46 125 -92 63 -46 115 -87 117 -91 2 -5 9 -8 16 -8 6 0 18 -9 26 -20 8
-11 19 -20 25 -20 5 0 26 -14 45 -30 19 -16 39 -30 43 -30 5 0 14 -6 21 -12
16 -16 30 -26 181 -131 66 -46 135 -92 153 -102 17 -11 32 -23 32 -27 0 -4 6
-8 13 -8 7 0 22 -8 33 -17 10 -10 31 -24 47 -32 15 -8 27 -18 27 -23 0 -4 4
-8 9 -8 5 0 42 -22 83 -48 175 -115 243 -157 250 -155 4 2 8 -1 8 -6 0 -9 18
-21 80 -53 14 -7 27 -15 30 -19 3 -3 28 -19 55 -34 28 -16 51 -33 53 -37 2 -4
8 -8 13 -8 5 0 46 -22 90 -50 44 -27 85 -50 90 -50 5 0 9 -4 9 -10 0 -5 6 -10
14 -10 7 0 19 -7 26 -15 7 -8 16 -13 20 -10 4 2 17 -5 28 -16 12 -11 22 -17
22 -14 0 5 50 -24 60 -35 11 -13 206 -103 264 -121 87 -29 117 -33 241 -33 79
0 127 6 170 19 33 10 63 18 68 17 4 -1 7 2 7 6 0 5 6 9 13 9 18 0 164 72 213
105 23 15 46 28 51 28 5 0 18 7 28 15 36 27 180 118 184 116 2 -2 7 2 10 7 5
8 93 63 142 87 10 5 19 13 19 17 0 5 7 8 15 8 8 0 15 5 15 10 0 6 7 10 15 10
8 0 15 4 15 8 0 5 12 14 27 21 33 15 488 317 631 418 56 40 106 73 111 73 5 0
11 7 15 15 3 8 12 15 21 15 8 0 15 5 15 10 0 6 5 10 10 10 6 0 18 7 28 16 9 9
73 56 142 105 69 49 134 97 145 107 11 10 41 33 68 52 26 18 47 37 47 42 0 5
4 7 9 4 5 -3 19 5 32 17 13 13 53 45 89 72 36 27 70 54 76 60 7 5 24 19 40 30
15 11 35 27 44 35 9 8 42 35 75 60 32 25 70 56 84 69 15 13 50 42 79 63 28 22
52 43 52 47 0 4 12 14 28 24 15 9 43 31 63 49 21 18 58 51 83 73 26 22 62 54
80 70 18 17 63 57 101 90 38 33 88 79 113 103 24 23 45 42 47 42 2 0 26 23 54
50 28 28 56 50 62 50 5 0 8 4 5 9 -4 5 -2 11 4 13 15 5 230 219 230 229 0 5 6
9 14 9 8 0 16 4 18 9 3 8 99 113 258 282 25 26 63 69 85 95 22 26 51 59 65 74
14 15 45 51 69 81 25 30 51 61 58 69 12 14 65 78 103 126 9 11 29 37 45 59 16
22 32 42 35 45 3 3 17 21 30 40 13 19 27 37 30 40 3 3 27 34 52 70 26 36 51
70 55 75 52 65 303 459 303 475 0 5 3 10 8 10 4 0 12 10 17 23 16 34 69 131
75 137 3 3 12 19 20 35 20 40 28 44 62 34 17 -4 40 -4 54 1 14 6 23 6 20 2 -3
-5 15 -6 39 -2 25 4 45 4 45 1 0 -3 14 -6 30 -6 17 0 30 3 30 7 0 4 11 3 25
-2 16 -6 26 -6 31 1 4 7 10 6 19 -1 7 -6 16 -7 19 -2 5 9 70 7 86 -3 6 -3 10
-2 10 2 0 10 46 10 56 1 3 -4 18 -3 32 1 15 4 39 4 54 0 15 -4 29 -5 31 -2 10
9 57 10 57 1 0 -5 4 -6 10 -3 17 11 90 11 94 0 3 -7 7 -7 13 0 10 12 213 13
213 1 0 -5 6 -5 13 0 15 11 38 11 55 1 6 -5 12 -5 12 0 0 4 20 8 45 8 25 0 45
-3 45 -8 0 -4 6 -5 13 0 19 12 57 11 57 -1 0 -7 3 -8 8 -1 9 13 105 13 114 0
5 -7 8 -7 8 0 0 12 209 14 227 2 6 -4 14 -4 17 1 4 6 172 9 186 2 3 -1 10 -1
15 0 6 2 449 4 985 6 536 1 1358 4 1827 5 469 2 855 1 858 -2 3 -4 6 -843 6
-1865 0 -1381 3 -1869 12 -1899 15 -53 90 -127 143 -140 25 -7 231 -10 579 -9
468 2 570 4 583 14 1 2 6 3 10 4 5 0 24 12 43 25 40 27 80 91 86 136 8 53 6
8329 -1 8369 -15 80 -90 156 -169 172 -39 8 -292 8 -305 0 -6 -4 -12 -4 -12 1
0 10 -212 9 -228 -1 -7 -4 -12 -4 -12 1 0 7 -194 9 -225 3 -5 -1 -14 -1 -20 0
-20 5 -105 1 -115 -5 -5 -3 -10 -3 -10 2 0 4 -34 8 -75 8 -41 0 -75 -2 -75 -5z"/>
<path d="M2137 19343 c-4 -4 -17 -8 -29 -10 -31 -5 -82 -52 -109 -103 l-24
-44 0 -3456 c0 -3324 1 -3456 19 -3492 25 -51 63 -87 115 -110 43 -18 72 -19
610 -16 442 2 565 6 569 16 2 6 7 10 11 7 7 -4 66 50 97 87 6 7 15 31 20 53
13 51 12 6901 -1 6930 -21 49 -59 93 -98 116 l-42 24 -566 3 c-311 1 -568 -1
-572 -5z"/>
<path d="M28155 19340 c-46 -14 -110 -74 -130 -122 -17 -41 -18 -216 -19
-3478 -1 -2936 0 -3442 13 -3480 17 -56 83 -121 138 -138 29 -9 187 -12 581
-12 508 0 543 1 584 19 48 20 98 61 98 80 0 6 4 11 9 11 16 0 31 94 28 188 -1
50 1 92 5 92 4 0 5 7 1 16 -8 23 -9 224 -1 224 4 0 5 7 1 16 -8 23 -9 224 -1
224 4 0 5 7 1 16 -8 23 -9 224 -1 224 4 0 5 6 2 13 -8 21 -10 1667 -2 1667 4
0 5 7 1 16 -8 23 -9 224 -1 224 4 0 5 7 1 16 -8 23 -9 224 -1 224 4 0 5 7 1
16 -8 23 -9 224 -1 224 4 0 5 7 1 16 -8 23 -9 224 -1 224 4 0 5 7 1 16 -8 23
-9 224 -1 224 4 0 5 7 1 16 -8 23 -9 224 -1 224 4 0 5 7 1 16 -8 23 -9 224 -1
224 4 0 5 7 1 16 -8 23 -9 224 -1 224 4 0 5 7 1 16 -8 23 -9 224 -1 224 4 0 5
6 2 13 -8 21 -10 1667 -2 1667 4 0 5 7 1 16 -9 24 -9 224 0 224 5 0 5 5 1 11
-4 7 -7 50 -6 98 0 63 -5 97 -18 128 -21 48 -86 113 -112 113 -9 0 -19 4 -23
9 -7 13 -1109 13 -1150 1z"/>
<path d="M477 18524 c-1 -1 -32 -4 -69 -6 -48 -4 -79 -13 -112 -32 -25 -15
-46 -30 -46 -35 0 -4 -8 -16 -17 -27 -10 -10 -23 -33 -29 -49 -8 -22 -10 -790
-10 -2640 1 -2574 1 -2611 21 -2650 25 -51 46 -71 102 -99 l45 -23 546 -1
c339 0 563 4 589 10 45 11 123 70 123 94 0 8 4 14 9 14 5 0 12 19 16 43 4 23
8 1206 8 2628 0 2043 -3 2594 -13 2625 -14 44 -77 108 -124 128 -17 7 -65 14
-106 15 -86 3 -931 7 -933 5z"/>
<path d="M30030 18520 c-129 -7 -174 -28 -223 -104 l-32 -51 1 -2610 c0 -1435
2 -2621 5 -2635 12 -66 82 -134 153 -150 59 -13 1112 -9 1152 5 52 18 100 61
125 112 l22 46 0 2612 0 2613 -25 43 c-45 76 -91 107 -170 115 -73 7 -879 10
-1008 4z"/>
</g>
</svg>
