<svg width="98" height="31" viewBox="0 0 98 31" fill="none" xmlns="http://www.w3.org/2000/svg">
<rect width="98" height="31" fill="#FFFCFC"/>
<path d="M65.5867 10.5673C65.1533 6.54333 62.6439 3.14533 59.0166 1.7146C55.3894 0.28386 51.2603 1.04394 48.3403 3.61479C46.5837 2.07228 44.3024 1.15571 41.9299 1.04394C39.1011 0.909807 36.432 1.87108 34.4016 3.77128C32.5082 5.53734 31.3447 7.97407 31.1166 10.612C31.0025 11.9309 31.1394 13.2499 31.5729 14.6583L13.8701 14.6136C13.3911 14.6136 13.0032 14.8371 12.7751 15.2172C12.5242 15.6419 12.5242 16.1784 12.7751 16.6032C13.0032 16.9832 13.3911 17.2068 13.8701 17.2068L33.4435 17.2515C33.8998 17.2515 34.2648 17.0503 34.4929 16.715C34.7438 16.3349 34.7895 15.7984 34.5841 15.3513C33.0557 11.8862 33.626 8.21997 36.067 5.80561C37.5726 4.33016 39.5573 3.57008 41.6333 3.63715C43.8233 3.70421 45.9221 4.7102 47.3821 6.36449C47.6102 6.61039 47.9524 6.76688 48.3403 6.76688C48.7281 6.76688 49.0703 6.63275 49.2984 6.36449C51.5569 3.81599 54.956 2.92178 58.0129 4.08425C60.7048 5.11259 62.6439 7.68345 62.9632 10.6343C63.0545 11.4838 63.8301 11.9086 64.5373 11.8415C65.2217 11.7521 65.6552 11.2379 65.5867 10.5673Z" fill="#2A2A2A"/>
<path d="M9.39895 27.1549H6.25079C5.86297 27.1549 5.56641 26.8419 5.56641 26.4842V5.20198C5.56641 4.82194 5.88579 4.53133 6.25079 4.53133H9.42177C9.80958 4.53133 10.1061 4.8443 10.1061 5.20198V26.4842C10.0833 26.8419 9.78677 27.1549 9.39895 27.1549Z" fill="#2A2A2A"/>
<path d="M3.87817 24.4946H0.684384C0.319379 24.4946 0 24.2039 0 23.8239V7.79518C0 7.4375 0.296566 7.12453 0.684384 7.12453H3.87817C4.24318 7.12453 4.56256 7.41515 4.56256 7.79518V23.8239C4.56256 24.2039 4.26599 24.4946 3.87817 24.4946Z" fill="#2A2A2A"/>
<path d="M14.9198 29.4575H11.7716C11.3838 29.4575 11.0645 29.1445 11.0645 28.7645V2.87707C11.0645 2.49703 11.3838 2.18405 11.7716 2.18405H14.9198C15.3076 2.18405 15.627 2.49703 15.627 2.87707V28.7868C15.627 29.1668 15.3076 29.4575 14.9198 29.4575Z" fill="#2A2A2A"/>
<path d="M82.9702 15.2172C82.7421 14.8372 82.3543 14.6136 81.8752 14.6136L63.3284 14.6583C62.9178 14.6583 62.3703 14.8819 62.1649 15.329C60.0662 19.8895 55.823 23.3098 52.7889 25.5006C51.4429 26.4619 50.097 27.3561 48.751 28.1609L48.6141 28.228C48.4088 28.3398 48.4088 28.3398 48.2263 28.2727C47.7016 28.0715 47.1769 27.7138 46.6751 27.3785C46.4697 27.2443 46.2644 27.1102 46.0819 26.9761C44.7132 26.1042 43.5269 25.2771 42.4319 24.4499C40.2647 22.7733 38.4853 21.0966 36.9796 19.2635C36.5462 18.727 35.8618 18.6599 35.3143 19.0847C34.7668 19.5094 34.5158 20.3589 35.0633 21.0296C36.5234 22.7956 38.2571 24.4723 40.3787 26.1266C41.6106 27.0879 42.9109 28.0268 44.2569 28.8986C44.9413 29.3457 45.6713 29.7929 46.4241 30.24L46.5838 30.3294C47.1085 30.6424 47.7016 31 48.4088 31C48.5457 31 48.7054 30.9777 48.8651 30.9553C49.4354 30.8212 49.9829 30.4635 50.4848 30.1505C50.6217 30.0611 50.7357 29.9717 50.8726 29.9046C51.6711 29.4128 52.4695 28.8763 53.268 28.3398C55.5036 26.7972 57.3971 25.2771 59.0852 23.6899C61.3893 21.499 63.0547 19.3753 64.1725 17.2515L81.8752 17.2068C82.3543 17.2068 82.7421 16.9833 82.9702 16.6032C83.2212 16.1785 83.2212 15.642 82.9702 15.2172Z" fill="#FBF138"/>
<path d="M87.6014 27.1549H90.7724C91.1602 27.1549 91.4567 26.8419 91.4567 26.4842V5.20198C91.4567 4.82194 91.1374 4.53133 90.7724 4.53133H87.6014C87.2136 4.53133 86.917 4.8443 86.917 5.20198V26.4842C86.917 26.8419 87.2136 27.1549 87.6014 27.1549Z" fill="#FBF138"/>
<path d="M93.1219 24.4946H96.3157C96.6807 24.4946 97 24.204 97 23.824V7.79526C97 7.43758 96.7035 7.1246 96.3157 7.1246H93.1219C92.7569 7.1246 92.4375 7.41522 92.4375 7.79526V23.824C92.4375 24.204 92.7341 24.4946 93.1219 24.4946Z" fill="#FBF138"/>
<path d="M82.0807 29.4575H85.2289C85.6167 29.4575 85.9361 29.1445 85.9361 28.7645V2.87707C85.9361 2.49703 85.6167 2.18405 85.2289 2.18405H82.0807C81.6929 2.18405 81.3735 2.49703 81.3735 2.87707V28.7868C81.3735 29.1668 81.6929 29.4575 82.0807 29.4575Z" fill="#FBF138"/>
</svg>
